# Rhino

mtllib 25tartan2.mtl
usemtl Custom
v 3.1599085330963135 20.889965057373047 3.8676607608795166
v 5.545961856842041 10.735161781311035 3.9424171447753906
v 7.9320154190063477 0.58035987615585327 4.0171737670898438
v -1.8538190126419067 20.889965057373047 3.7861998081207275
v -1.7301567792892456 10.693305969238281 3.8315262794494629
v -1.606494665145874 0.49664825201034546 3.8768525123596191
v -6.867546558380127 20.889965057373047 3.7047388553619385
v -9.0062751770019531 10.651450157165527 3.7206351757049561
v -11.145005226135254 0.41293662786483765 3.7365314960479736
vt 0 0
vt 0 0.5
vt 0 1
vt 0.5 0
vt 0.5 0.5
vt 0.5 1
vt 1 0
vt 1 0.5
vt 1 1
vn -0.016245335340499878 0.0035435273312032223 0.99986177682876587
vn -0.015260238200426102 0.0037751018535345793 0.99987643957138062
vn -0.014743488281965256 0.0038965749554336071 0.99988371133804321
vn -0.016245290637016296 0.004247570876032114 0.9998590350151062
vn -0.015262993983924389 0.0042595523409545422 0.99987441301345825
vn -0.014746706932783127 0.0042658480815589428 0.99988216161727905
vn -0.016245238482952118 0.0049458518624305725 0.99985581636428833
vn -0.015265732072293758 0.0047412673011422157 0.99987220764160156
vn -0.014749908819794655 0.0046335295774042606 0.99988049268722534
f 5/5/5 2/2/2 1/1/1 4/4/4
f 6/6/6 3/3/3 2/2/2 5/5/5
f 8/8/8 5/5/5 4/4/4 7/7/7
f 9/9/9 6/6/6 5/5/5 8/8/8
usemtl Custom
v 2.9598259925842285 20.889965057373047 25.752420425415039
v 5.3458795547485352 10.735161781311035 25.827177047729492
v 7.7319326400756836 0.58035987615585327 25.901933670043945
v -7.0676288604736328 20.889965057373047 25.589498519897461
v -9.2063579559326172 10.651450157165527 25.605396270751953
v -11.345087051391602 0.41293662786483765 25.621292114257813
vt 0 0
vt 0 0.5
vt 0 1
vt 1 0
vt 1 0.5
vt 1 1
vn -0.016245335340499878 0.0035435273312032223 0.99986177682876587
vn -0.015260238200426102 0.0037751018535345793 0.99987643957138062
vn -0.014743488281965256 0.0038965749554336071 0.99988371133804321
vn -0.016245238482952118 0.0049458518624305725 0.99985581636428833
vn -0.015265732072293758 0.0047412673011422157 0.99987220764160156
vn -0.014749908819794655 0.0046335295774042606 0.99988049268722534
f 14/14/14 11/11/11 10/10/10 13/13/13
f 15/15/15 12/12/12 11/11/11 14/14/14
usemtl Custom
v 3.024249792098999 20.889965057373047 21.78727912902832
v 5.4103035926818848 10.735161781311035 21.862033843994141
v 7.7963566780090332 0.58035987615585327 21.936790466308594
v -1.9894775152206421 20.889965057373047 21.705818176269531
v -1.8658154010772705 10.693305969238281 21.751144409179688
v -1.7421532869338989 0.49664825201034546 21.796470642089844
v -7.0032048225402832 20.889965057373047 21.624357223510742
v -9.1419343948364258 10.651450157165527 21.640253067016602
v -11.28066349029541 0.41293662786483765 21.656148910522461
vt 0 0
vt 0 0.5
vt 0 1
vt 0.5 0
vt 0.5 0.5
vt 0.5 1
vt 1 0
vt 1 0.5
vt 1 1
vn -0.016245335340499878 0.0035435273312032223 0.99986177682876587
vn -0.015260238200426102 0.0037751018535345793 0.99987643957138062
vn -0.014743488281965256 0.0038965749554336071 0.99988371133804321
vn -0.016245290637016296 0.004247570876032114 0.9998590350151062
vn -0.015262993983924389 0.0042595523409545422 0.99987441301345825
vn -0.014746706932783127 0.0042658480815589428 0.99988216161727905
vn -0.016245238482952118 0.0049458518624305725 0.99985581636428833
vn -0.015265732072293758 0.0047412673011422157 0.99987220764160156
vn -0.014749908819794655 0.0046335295774042606 0.99988049268722534
f 20/20/20 17/17/17 16/16/16 19/19/19
f 21/21/21 18/18/18 17/17/17 20/20/20
f 23/23/23 20/20/20 19/19/19 22/22/22
f 24/24/24 21/21/21 20/20/20 23/23/23
usemtl Custom
v 3.0886738300323486 20.889965057373047 17.822135925292969
v 5.4747271537780762 10.735161781311035 17.896892547607422
v 7.8607807159423828 0.58035987615585327 17.971649169921875
v -6.9387812614440918 20.889965057373047 17.659214019775391
v -9.077509880065918 10.651450157165527 17.67510986328125
v -11.216238975524902 0.41293662786483765 17.691005706787109
vt 0 0
vt 0 0.5
vt 0 1
vt 1 0
vt 1 0.5
vt 1 1
vn -0.016245335340499878 0.0035435273312032223 0.99986177682876587
vn -0.015260238200426102 0.0037751018535345793 0.99987643957138062
vn -0.014743488281965256 0.0038965749554336071 0.99988371133804321
vn -0.016245238482952118 0.0049458518624305725 0.99985581636428833
vn -0.015265732072293758 0.0047412673011422157 0.99987220764160156
vn -0.014749908819794655 0.0046335295774042606 0.99988049268722534
f 29/29/29 26/26/26 25/25/25 28/28/28
f 30/30/30 27/27/27 26/26/26 29/29/29
usemtl Custom
v 3.1536309719085693 20.889965057373047 13.824177742004395
v 5.5396842956542969 10.735161781311035 13.898934364318848
v 7.9257378578186035 0.58035987615585327 13.973690986633301
v -6.8738236427307129 20.889965057373047 13.661255836486816
v -9.0125532150268555 10.651450157165527 13.677152633666992
v -11.15128231048584 0.41293662786483765 13.693048477172852
vt 0 0
vt 0 0.5
vt 0 1
vt 1 0
vt 1 0.5
vt 1 1
vn -0.016245335340499878 0.0035435273312032223 0.99986177682876587
vn -0.015260238200426102 0.0037751018535345793 0.99987643957138062
vn -0.014743488281965256 0.0038965749554336071 0.99988371133804321
vn -0.016245238482952118 0.0049458518624305725 0.99985581636428833
vn -0.015265732072293758 0.0047412673011422157 0.99987220764160156
vn -0.014749908819794655 0.0046335295774042606 0.99988049268722534
f 35/35/35 32/32/32 31/31/31 34/34/34
f 36/36/36 33/33/33 32/32/32 35/35/35
usemtl Custom
v 3.1612966060638428 20.889965057373047 11.867803573608398
v 5.5473499298095703 10.735161781311035 11.942560195922852
v 7.933403491973877 0.58035987615585327 12.017315864562988
v -6.8661584854125977 20.889965057373047 11.70488166809082
v -9.004887580871582 10.651450157165527 11.72077751159668
v -11.143616676330566 0.41293662786483765 11.736674308776855
vt 0 0
vt 0 0.5
vt 0 1
vt 1 0
vt 1 0.5
vt 1 1
vn -0.016245335340499878 0.0035435273312032223 0.99986177682876587
vn -0.015260238200426102 0.0037751018535345793 0.99987643957138062
vn -0.014743488281965256 0.0038965749554336071 0.99988371133804321
vn -0.016245238482952118 0.0049458518624305725 0.99985581636428833
vn -0.015265732072293758 0.0047412673011422157 0.99987220764160156
vn -0.014749908819794655 0.0046335295774042606 0.99988049268722534
f 41/41/41 38/38/38 37/37/37 40/40/40
f 42/42/42 39/39/39 38/38/38 41/41/41
usemtl Custom
v 3.1795666217803955 20.889965057373047 7.821223258972168
v 5.565619945526123 10.735161781311035 7.8959794044494629
v 7.9516735076904297 0.58035987615585327 7.970736026763916
v -6.8478884696960449 20.889965057373047 7.6583013534545898
v -8.9866170883178711 10.651450157165527 7.6741976737976074
v -11.125346183776855 0.41293662786483765 7.690093994140625
vt 0 0
vt 0 0.5
vt 0 1
vt 1 0
vt 1 0.5
vt 1 1
vn -0.016245335340499878 0.0035435273312032223 0.99986177682876587
vn -0.015260238200426102 0.0037751018535345793 0.99987643957138062
vn -0.014743488281965256 0.0038965749554336071 0.99988371133804321
vn -0.016245238482952118 0.0049458518624305725 0.99985581636428833
vn -0.015265732072293758 0.0047412673011422157 0.99987220764160156
vn -0.014749908819794655 0.0046335295774042606 0.99988049268722534
f 47/47/47 44/44/44 43/43/43 46/46/46
f 48/48/48 45/45/45 44/44/44 47/47/47
usemtl Custom
v 3.2130112648010254 20.889965057373047 1.8446124792098999
v 5.599064826965332 10.735161781311035 1.9193689823150635
v 7.9851183891296387 0.58035987615585327 1.9941253662109375
v -6.8144435882568359 20.889965057373047 1.6816906929016113
v -8.9531726837158203 10.651450157165527 1.6975868940353394
v -11.091901779174805 0.41293662786483765 1.7134832143783569
vt 0 0
vt 0 0.5
vt 0 1
vt 1 0
vt 1 0.5
vt 1 1
vn -0.016245335340499878 0.0035435273312032223 0.99986177682876587
vn -0.015260238200426102 0.0037751018535345793 0.99987643957138062
vn -0.014743488281965256 0.0038965749554336071 0.99988371133804321
vn -0.016245238482952118 0.0049458518624305725 0.99985581636428833
vn -0.015265732072293758 0.0047412673011422157 0.99987220764160156
vn -0.014749908819794655 0.0046335295774042606 0.99988049268722534
f 53/53/53 50/50/50 49/49/49 52/52/52
f 54/54/54 51/51/51 50/50/50 53/53/53
usemtl Custom
v 3.30877685546875 20.889965057373047 -0.1313537061214447
v 5.6948304176330566 10.735161781311035 -0.056597314774990082
v 8.0808839797973633 0.58035987615585327 0.018159078434109688
v -6.7186779975891113 20.889965057373047 -0.29427561163902283
v -8.8574075698852539 10.651450157165527 -0.27837932109832764
v -10.996136665344238 0.41293662786483765 -0.26248300075531006
vt 0 0
vt 0 0.5
vt 0 1
vt 1 0
vt 1 0.5
vt 1 1
vn -0.016245335340499878 0.0035435273312032223 0.99986177682876587
vn -0.015260238200426102 0.0037751018535345793 0.99987643957138062
vn -0.014743488281965256 0.0038965749554336071 0.99988371133804321
vn -0.016245238482952118 0.0049458518624305725 0.99985581636428833
vn -0.015265732072293758 0.0047412673011422157 0.99987220764160156
vn -0.014749908819794655 0.0046335295774042606 0.99988049268722534
f 59/59/59 56/56/56 55/55/55 58/58/58
f 60/60/60 57/57/57 56/56/56 59/59/59
usemtl Custom
v 3.2120239734649658 20.889965057373047 5.8235478401184082
v 5.5980772972106934 10.735161781311035 5.8983044624328613
v 7.984130859375 0.58035987615585327 5.9730606079101563
v -6.8154306411743164 20.889965057373047 5.6606259346008301
v -8.9541597366333008 10.651450157165527 5.6765222549438477
v -11.092888832092285 0.41293662786483765 5.6924185752868652
vt 0 0
vt 0 0.5
vt 0 1
vt 1 0
vt 1 0.5
vt 1 1
vn -0.016245335340499878 0.0035435273312032223 0.99986177682876587
vn -0.015260238200426102 0.0037751018535345793 0.99987643957138062
vn -0.014743488281965256 0.0038965749554336071 0.99988371133804321
vn -0.016245238482952118 0.0049458518624305725 0.99985581636428833
vn -0.015265732072293758 0.0047412673011422157 0.99987220764160156
vn -0.014749908819794655 0.0046335295774042606 0.99988049268722534
f 65/65/65 62/62/62 61/61/61 64/64/64
f 66/66/66 63/63/63 62/62/62 65/65/65
usemtl Custom
v 3.1949715614318848 20.889965057373047 9.7951860427856445
v 5.5810251235961914 10.735161781311035 9.8699426651000977
v 7.967078685760498 0.58035987615585327 9.9446992874145508
v -6.8324832916259766 20.889965057373047 9.6322641372680664
v -8.9712123870849609 10.651450157165527 9.6481609344482422
v -11.109941482543945 0.41293662786483765 9.6640567779541016
vt 0 0
vt 0 0.5
vt 0 1
vt 1 0
vt 1 0.5
vt 1 1
vn -0.016245335340499878 0.0035435273312032223 0.99986177682876587
vn -0.015260238200426102 0.0037751018535345793 0.99987643957138062
vn -0.014743488281965256 0.0038965749554336071 0.99988371133804321
vn -0.016245238482952118 0.0049458518624305725 0.99985581636428833
vn -0.015265732072293758 0.0047412673011422157 0.99987220764160156
vn -0.014749908819794655 0.0046335295774042606 0.99988049268722534
f 71/71/71 68/68/68 67/67/67 70/70/70
f 72/72/72 69/69/69 68/68/68 71/71/71
usemtl Custom
v 3.1207273006439209 20.889965057373047 15.849330902099609
v 5.5067806243896484 10.735161781311035 15.924087524414063
v 7.8928341865539551 0.58035987615585327 15.998843193054199
v -6.9067277908325195 20.889965057373047 15.686408996582031
v -9.0454568862915039 10.651450157165527 15.702304840087891
v -11.184185981750488 0.41293662786483765 15.718201637268066
vt 0 0
vt 0 0.5
vt 0 1
vt 1 0
vt 1 0.5
vt 1 1
vn -0.016245335340499878 0.0035435273312032223 0.99986177682876587
vn -0.015260238200426102 0.0037751018535345793 0.99987643957138062
vn -0.014743488281965256 0.0038965749554336071 0.99988371133804321
vn -0.016245238482952118 0.0049458518624305725 0.99985581636428833
vn -0.015265732072293758 0.0047412673011422157 0.99987220764160156
vn -0.014749908819794655 0.0046335295774042606 0.99988049268722534
f 77/77/77 74/74/74 73/73/73 76/76/76
f 78/78/78 75/75/75 74/74/74 77/77/77
usemtl Custom
v 3.0572552680969238 20.889965057373047 19.755874633789063
v 5.4433088302612305 10.735161781311035 19.830631256103516
v 7.8293623924255371 0.58035987615585327 19.905387878417969
v -6.9701995849609375 20.889965057373047 19.592952728271484
v -9.1089286804199219 10.651450157165527 19.608850479125977
v -11.247657775878906 0.41293662786483765 19.624746322631836
vt 0 0
vt 0 0.5
vt 0 1
vt 1 0
vt 1 0.5
vt 1 1
vn -0.016245335340499878 0.0035435273312032223 0.99986177682876587
vn -0.015260238200426102 0.0037751018535345793 0.99987643957138062
vn -0.014743488281965256 0.0038965749554336071 0.99988371133804321
vn -0.016245238482952118 0.0049458518624305725 0.99985581636428833
vn -0.015265732072293758 0.0047412673011422157 0.99987220764160156
vn -0.014749908819794655 0.0046335295774042606 0.99988049268722534
f 83/83/83 80/80/80 79/79/79 82/82/82
f 84/84/84 81/81/81 80/80/80 83/83/83
usemtl Custom
v 2.9928312301635742 20.889965057373047 23.721017837524414
v 5.3788847923278809 10.735161781311035 23.795774459838867
v 7.7649383544921875 0.58035987615585327 23.87053108215332
v -7.0346236228942871 20.889965057373047 23.558095932006836
v -9.1733531951904297 10.651450157165527 23.573991775512695
v -11.312082290649414 0.41293662786483765 23.589887619018555
vt 0 0
vt 0 0.5
vt 0 1
vt 1 0
vt 1 0.5
vt 1 1
vn -0.016245335340499878 0.0035435273312032223 0.99986177682876587
vn -0.015260238200426102 0.0037751018535345793 0.99987643957138062
vn -0.014743488281965256 0.0038965749554336071 0.99988371133804321
vn -0.016245238482952118 0.0049458518624305725 0.99985581636428833
vn -0.015265732072293758 0.0047412673011422157 0.99987220764160156
vn -0.014749908819794655 0.0046335295774042606 0.99988049268722534
f 89/89/89 86/86/86 85/85/85 88/88/88
f 90/90/90 87/87/87 86/86/86 89/89/89
